<?xml version="1.0" encoding="UTF-8" standalone="no"?>
<!-- Created with Inkscape (http://www.inkscape.org/) -->

<svg
   xmlns:dc="http://purl.org/dc/elements/1.1/"
   xmlns:cc="http://creativecommons.org/ns#"
   xmlns:rdf="http://www.w3.org/1999/02/22-rdf-syntax-ns#"
   xmlns:svg="http://www.w3.org/2000/svg"
   xmlns="http://www.w3.org/2000/svg"
   xmlns:xlink="http://www.w3.org/1999/xlink"
   xmlns:sodipodi="http://sodipodi.sourceforge.net/DTD/sodipodi-0.dtd"
   xmlns:inkscape="http://www.inkscape.org/namespaces/inkscape"
   width="210mm"
   height="297mm"
   viewBox="0 0 210 297"
   version="1.1"
   id="svg8"
   inkscape:version="0.92.4 (5da689c313, 2019-01-14)"
   sodipodi:docname="negative_energy.svg">
  <defs
     id="defs2">
    <marker
       inkscape:isstock="true"
       style="overflow:visible;"
       id="marker2147"
       refX="0.0"
       refY="0.0"
       orient="auto"
       inkscape:stockid="Arrow1Mend">
      <path
         transform="scale(0.4) rotate(180) translate(10,0)"
         style="fill-rule:evenodd;stroke:#ff0000;stroke-width:1pt;stroke-opacity:1;fill:#ff0000;fill-opacity:1"
         d="M 0.0,0.0 L 5.0,-5.0 L -12.5,0.0 L 5.0,5.0 L 0.0,0.0 z "
         id="path2145" />
    </marker>
    <marker
       inkscape:isstock="true"
       style="overflow:visible;"
       id="marker2079"
       refX="0.0"
       refY="0.0"
       orient="auto"
       inkscape:stockid="Arrow1Mend">
      <path
         transform="scale(0.4) rotate(180) translate(10,0)"
         style="fill-rule:evenodd;stroke:#ff0000;stroke-width:1pt;stroke-opacity:1;fill:#ff0000;fill-opacity:1"
         d="M 0.0,0.0 L 5.0,-5.0 L -12.5,0.0 L 5.0,5.0 L 0.0,0.0 z "
         id="path2077" />
    </marker>
    <marker
       inkscape:stockid="Arrow1Mend"
       orient="auto"
       refY="0.0"
       refX="0.0"
       id="Arrow1Mend"
       style="overflow:visible;"
       inkscape:isstock="true"
       inkscape:collect="always">
      <path
         id="path828"
         d="M 0.0,0.0 L 5.0,-5.0 L -12.5,0.0 L 5.0,5.0 L 0.0,0.0 z "
         style="fill-rule:evenodd;stroke:#000000;stroke-width:1pt;stroke-opacity:1;fill:#000000;fill-opacity:1"
         transform="scale(0.4) rotate(180) translate(10,0)" />
    </marker>
    <marker
       inkscape:stockid="Arrow1Mend"
       orient="auto"
       refY="0"
       refX="0"
       id="Arrow1Mend-5"
       style="overflow:visible"
       inkscape:isstock="true">
      <path
         inkscape:connector-curvature="0"
         id="path828-7"
         d="M 0,0 5,-5 -12.5,0 5,5 Z"
         style="fill:#000000;fill-opacity:1;fill-rule:evenodd;stroke:#000000;stroke-width:1.00000003pt;stroke-opacity:1"
         transform="matrix(-0.4,0,0,-0.4,-4,0)" />
    </marker>
  </defs>
  <sodipodi:namedview
     id="base"
     pagecolor="#ffffff"
     bordercolor="#666666"
     borderopacity="1.0"
     inkscape:pageopacity="0.0"
     inkscape:pageshadow="2"
     inkscape:zoom="3.1430434"
     inkscape:cx="457.1719"
     inkscape:cy="902.42888"
     inkscape:document-units="mm"
     inkscape:current-layer="layer1"
     showgrid="true"
     showguides="false"
     inkscape:window-width="2560"
     inkscape:window-height="1537"
     inkscape:window-x="-8"
     inkscape:window-y="-8"
     inkscape:window-maximized="1">
    <inkscape:grid
       type="xygrid"
       id="grid815" />
  </sodipodi:namedview>
  <metadata
     id="metadata5">
    <rdf:RDF>
      <cc:Work
         rdf:about="">
        <dc:format>image/svg+xml</dc:format>
        <dc:type
           rdf:resource="http://purl.org/dc/dcmitype/StillImage" />
        <dc:title></dc:title>
      </cc:Work>
    </rdf:RDF>
  </metadata>
  <g
     inkscape:label="レイヤー 1"
     inkscape:groupmode="layer"
     id="layer1">
    <path
       style="fill:none;stroke:#000000;stroke-width:0.265;stroke-linecap:butt;stroke-linejoin:miter;stroke-opacity:1;stroke-miterlimit:4;stroke-dasharray:none;marker-end:url(#Arrow1Mend)"
       d="M 37.041666,49.614584 H 123.03125"
       id="path817"
       inkscape:connector-curvature="0" />
    <path
       style="fill:none;stroke:#000000;stroke-width:0.26499999;stroke-linecap:butt;stroke-linejoin:miter;stroke-miterlimit:4;stroke-dasharray:none;stroke-opacity:1;marker-end:url(#Arrow1Mend-5)"
       d="M 79.375,86.65625 V 8.6041667"
       id="path817-5"
       inkscape:connector-curvature="0"
       sodipodi:nodetypes="cc" />
    <g
       title="\(\displaystyle E\)"
       style="fill:#000000"
       id="equation_00"
       transform="matrix(0.77158997,0,0,0.77158997,17.480486,-40.573871)">
      <defs
         id="defs1989">
        <path
           d="M 5.637638,-1.607918 5.478832,-1.687321 c -0.466495,0.645152 -0.724556,0.893287 -1.151349,1.091796 -0.367241,0.168732 -1.042169,0.267986 -1.796501,0.267986 -0.555823,0 -0.784108,-0.099254 -0.784108,-0.337464 0,-0.119105 0.109179,-0.575674 0.357315,-1.449111 l 0.317613,-1.141424 0.774183,0.029777 c 0.029776,0 0.059553,0 0.079404,0 0.347389,0 0.595525,0.059552 0.694779,0.148881 0.049627,0.049627 0.069478,0.138956 0.069478,0.307688 0,0.178657 -0.019851,0.297762 -0.069478,0.516122 l 0.198508,0.049627 0.674929,-2.302698 -0.178658,-0.039701 c -0.377166,0.84366 -0.47642,0.913138 -1.369708,0.942915 l -0.784108,0.01985 0.655078,-2.312622 c 0.059552,-0.21836 0.158807,-0.258061 0.724556,-0.258061 1.55829,0 1.90568,0.12903 1.90568,0.724555 0,0.129031 -0.00992,0.277912 -0.019851,0.446644 L 5.985028,-4.96271 6.292716,-6.481299 H 1.359783 v 0.158807 c 0.615376,0.059552 0.764257,0.138955 0.764257,0.406942 0,0.119105 -0.059553,0.436718 -0.10918,0.635227 l -1.220826,4.387035 c -0.178658,0.575675 -0.248136,0.635227 -0.803959,0.734481 V 0 h 5.032187 z"
           id="equation_00_00"
           inkscape:connector-curvature="0" />
      </defs>
      <g
         id="equation_00_g">
        <use
           id="use1991"
           xlink:href="#equation_00_00"
           y="62.764633"
           x="76.99128"
           width="100%"
           height="100%" />
      </g>
    </g>
    <g
       title="\(\displaystyle \vvmathbb{k}\)"
       style="fill:#000000"
       id="equation_01"
       transform="translate(48.889782,-9.9166751)">
      <defs
         id="defs2019">
        <path
           d="M 5.349801,0 3.42427,-2.997477 4.972635,-4.208378 4.714574,-4.555768 1.965233,-2.392026 V -6.779062 H 0.496271 V 0 H 1.965233 V -1.856053 L 2.292772,-2.114114 3.622778,0 Z M 4.555768,-0.436718 H 3.870914 L 2.640162,-2.382101 3.086806,-2.72949 Z m -3.027253,0 H 0.932989 v -5.905625 h 0.595526 z"
           id="equation_01_00"
           inkscape:connector-curvature="0" />
      </defs>
      <g
         id="equation_01_g">
        <use
           id="use2021"
           xlink:href="#equation_01_00"
           y="62.764633"
           x="76.712326"
           width="100%"
           height="100%" />
      </g>
    </g>
    <path
       style="fill:none;stroke:#0000ff;stroke-width:0.665;stroke-linecap:butt;stroke-linejoin:miter;stroke-opacity:1;stroke-miterlimit:4;stroke-dasharray:none"
       d="m 41.010416,8.6041581 c 0,0 25.135416,26.4583319 38.364583,26.4583319 13.229167,0 38.364581,-26.4583319 38.364581,-26.4583319"
       id="path2033"
       inkscape:connector-curvature="0" />
    <path
       style="fill:none;stroke:#0000ff;stroke-width:0.63289499;stroke-linecap:butt;stroke-linejoin:miter;stroke-miterlimit:4;stroke-dasharray:none;stroke-opacity:1"
       d="m 40.98355,87.979158 c 0,0 25.144221,-23.956885 38.378021,-23.956885 13.233801,0 38.378009,23.956885 38.378009,23.956885"
       id="path2033-4"
       inkscape:connector-curvature="0" />
    <path
       style="fill:#ff0000;stroke:#000000;stroke-width:0.1;stroke-miterlimit:4;stroke-dasharray:none"
       id="path2052"
       sodipodi:type="arc"
       sodipodi:cx="55.430244"
       sodipodi:cy="22.1059"
       sodipodi:rx="0.92604011"
       sodipodi:ry="0.92604011"
       sodipodi:start="0"
       sodipodi:end="6.2745561"
       d="m 56.356285,22.1059 a 0.92604011,0.92604011 0 0 1 -0.924043,0.926038 0.92604011,0.92604011 0 0 1 -0.928029,-0.922043 0.92604011,0.92604011 0 0 1 0.920038,-0.930016 0.92604011,0.92604011 0 0 1 0.931999,0.91803"
       sodipodi:open="true" />
    <path
       style="fill:#ff0000;stroke:#000000;stroke-width:0.1;stroke-miterlimit:4;stroke-dasharray:none"
       id="path2052-4"
       sodipodi:type="arc"
       sodipodi:cx="91.678162"
       sodipodi:cy="68.143402"
       sodipodi:rx="0.92604017"
       sodipodi:ry="0.92604017"
       sodipodi:start="0"
       sodipodi:end="6.2745561"
       d="m 92.604202,68.143402 a 0.92604017,0.92604017 0 0 1 -0.924043,0.926038 0.92604017,0.92604017 0 0 1 -0.928029,-0.922042 0.92604017,0.92604017 0 0 1 0.920038,-0.930017 0.92604017,0.92604017 0 0 1 0.931999,0.91803"
       sodipodi:open="true" />
    <path
       style="fill:none;stroke:#ff0000;stroke-width:0.16500001;stroke-linecap:butt;stroke-linejoin:miter;stroke-miterlimit:4;stroke-dasharray:none;stroke-opacity:1;marker-end:url(#marker2079)"
       d="m 55.5625,24.479158 c 0,0 7.937499,14.552082 18.520832,22.489582 10.583334,7.9375 17.197917,19.84375 17.197917,19.84375"
       id="path2069"
       inkscape:connector-curvature="0"
       sodipodi:nodetypes="csc" />
    <path
       style="fill:none;stroke:#ff0000;stroke-width:0.165;stroke-linecap:butt;stroke-linejoin:miter;stroke-opacity:1;stroke-miterlimit:4;stroke-dasharray:none;marker-end:url(#marker2147)"
       d="M 93.927082,68.135407 C 104.51042,74.74999 104.51042,74.74999 104.51042,74.74999"
       id="path2137"
       inkscape:connector-curvature="0" />
    <text
       xml:space="preserve"
       style="font-style:normal;font-variant:normal;font-weight:normal;font-stretch:normal;font-size:3.17499995px;line-height:1.25;font-family:'Yu Mincho';-inkscape-font-specification:'Yu Mincho';letter-spacing:0px;word-spacing:0px;fill:#ff0000;fill-opacity:1;stroke:none;stroke-width:0.26458332"
       x="87.961967"
       y="60.161674"
       id="text2187"><tspan
         sodipodi:role="line"
         x="87.961967"
         y="60.161674"
         style="font-style:normal;font-variant:normal;font-weight:normal;font-stretch:normal;font-family:'Yu Mincho';-inkscape-font-specification:'Yu Mincho';fill:#ff0000;stroke-width:0.26458332"
         id="tspan2189">相互作用で落ちることができる</tspan></text>
  </g>
</svg>
