<?xml version="1.0" encoding="UTF-8" standalone="no"?>
<svg
   xmlns:dc="http://purl.org/dc/elements/1.1/"
   xmlns:cc="http://creativecommons.org/ns#"
   xmlns:rdf="http://www.w3.org/1999/02/22-rdf-syntax-ns#"
   xmlns:svg="http://www.w3.org/2000/svg"
   xmlns="http://www.w3.org/2000/svg"
   xmlns:sodipodi="http://sodipodi.sourceforge.net/DTD/sodipodi-0.dtd"
   xmlns:inkscape="http://www.inkscape.org/namespaces/inkscape"
   width="210mm"
   height="297mm"
   viewBox="0 0 210 297"
   version="1.1"
   id="svg8"
   inkscape:version="1.0 (4035a4fb49, 2020-05-01)"
   sodipodi:docname="oscillator.svg">
  <defs
     id="defs2">
    <marker
       inkscape:isstock="true"
       style="overflow:visible"
       id="Arrow1Mstart"
       refX="0.0"
       refY="0.0"
       orient="auto"
       inkscape:stockid="Arrow1Mstart">
      <path
         transform="scale(0.4) translate(10,0)"
         style="fill-rule:evenodd;stroke:#0000ff;stroke-width:1pt;stroke-opacity:1;fill:#0000ff;fill-opacity:1"
         d="M 0.0,0.0 L 5.0,-5.0 L -12.5,0.0 L 5.0,5.0 L 0.0,0.0 z "
         id="path1002" />
    </marker>
    <marker
       inkscape:isstock="true"
       style="overflow:visible;"
       id="marker2147"
       refX="0.0"
       refY="0.0"
       orient="auto"
       inkscape:stockid="Arrow1Mend">
      <path
         transform="scale(0.4) rotate(180) translate(10,0)"
         style="fill-rule:evenodd;stroke:#0000ff;stroke-width:1pt;stroke-opacity:1;fill:#0000ff;fill-opacity:1"
         d="M 0.0,0.0 L 5.0,-5.0 L -12.5,0.0 L 5.0,5.0 L 0.0,0.0 z "
         id="path2145" />
    </marker>
    <marker
       inkscape:isstock="true"
       style="overflow:visible;"
       id="marker2079"
       refX="0.0"
       refY="0.0"
       orient="auto"
       inkscape:stockid="Arrow1Mend">
      <path
         transform="scale(0.4) rotate(180) translate(10,0)"
         style="fill-rule:evenodd;stroke:#ff0000;stroke-width:1pt;stroke-opacity:1;fill:#ff0000;fill-opacity:1"
         d="M 0.0,0.0 L 5.0,-5.0 L -12.5,0.0 L 5.0,5.0 L 0.0,0.0 z "
         id="path2077" />
    </marker>
    <marker
       inkscape:stockid="Arrow1Mend"
       orient="auto"
       refY="0"
       refX="0"
       id="Arrow1Mend-5"
       style="overflow:visible"
       inkscape:isstock="true">
      <path
         inkscape:connector-curvature="0"
         id="path828-7"
         d="M 0,0 5,-5 -12.5,0 5,5 Z"
         style="fill:#000000;fill-opacity:1;fill-rule:evenodd;stroke:#000000;stroke-width:1.00000003pt;stroke-opacity:1"
         transform="matrix(-0.4,0,0,-0.4,-4,0)" />
    </marker>
    <marker
       inkscape:isstock="true"
       style="overflow:visible"
       id="marker2079-8"
       refX="0"
       refY="0"
       orient="auto"
       inkscape:stockid="Arrow1Mend">
      <path
         inkscape:connector-curvature="0"
         transform="matrix(-0.4,0,0,-0.4,-4,0)"
         style="fill:#ff0000;fill-opacity:1;fill-rule:evenodd;stroke:#ff0000;stroke-width:1.00000003pt;stroke-opacity:1"
         d="M 0,0 5,-5 -12.5,0 5,5 Z"
         id="path2077-3" />
    </marker>
    <marker
       inkscape:isstock="true"
       style="overflow:visible"
       id="marker2079-8-3"
       refX="0"
       refY="0"
       orient="auto"
       inkscape:stockid="Arrow1Mend">
      <path
         inkscape:connector-curvature="0"
         transform="matrix(-0.4,0,0,-0.4,-4,0)"
         style="fill:#ff0000;fill-opacity:1;fill-rule:evenodd;stroke:#ff0000;stroke-width:1.00000003pt;stroke-opacity:1"
         d="M 0,0 5,-5 -12.5,0 5,5 Z"
         id="path2077-3-8" />
    </marker>
    <marker
       inkscape:stockid="Arrow1Mend"
       orient="auto"
       refY="0"
       refX="0"
       id="Arrow1Mend-5-0"
       style="overflow:visible"
       inkscape:isstock="true">
      <path
         inkscape:connector-curvature="0"
         id="path828-7-2"
         d="M 0,0 5,-5 -12.5,0 5,5 Z"
         style="fill:#000000;fill-opacity:1;fill-rule:evenodd;stroke:#000000;stroke-width:1.00000003pt;stroke-opacity:1"
         transform="matrix(-0.4,0,0,-0.4,-4,0)" />
    </marker>
    <path
       d="M 5.637638,-1.607918 5.478832,-1.687321 c -0.466495,0.645152 -0.724556,0.893287 -1.151349,1.091796 -0.367241,0.168732 -1.042169,0.267986 -1.796501,0.267986 -0.555823,0 -0.784108,-0.099254 -0.784108,-0.337464 0,-0.119105 0.109179,-0.575674 0.357315,-1.449111 l 0.317613,-1.141424 0.774183,0.029777 c 0.029776,0 0.059553,0 0.079404,0 0.347389,0 0.595525,0.059552 0.694779,0.148881 0.049627,0.049627 0.069478,0.138956 0.069478,0.307688 0,0.178657 -0.019851,0.297762 -0.069478,0.516122 l 0.198508,0.049627 0.674929,-2.302698 -0.178658,-0.039701 c -0.377166,0.84366 -0.47642,0.913138 -1.369708,0.942915 l -0.784108,0.01985 0.655078,-2.312622 c 0.059552,-0.21836 0.158807,-0.258061 0.724556,-0.258061 1.55829,0 1.90568,0.12903 1.90568,0.724555 0,0.129031 -0.00992,0.277912 -0.019851,0.446644 L 5.985028,-4.96271 6.292716,-6.481299 H 1.359783 v 0.158807 c 0.615376,0.059552 0.764257,0.138955 0.764257,0.406942 0,0.119105 -0.059553,0.436718 -0.10918,0.635227 l -1.220826,4.387035 c -0.178658,0.575675 -0.248136,0.635227 -0.803959,0.734481 V 0 h 5.032187 z"
       id="equation_00_00-2"
       inkscape:connector-curvature="0" />
    <path
       d="M 5.349801,0 3.42427,-2.997477 4.972635,-4.208378 4.714574,-4.555768 1.965233,-2.392026 V -6.779062 H 0.496271 V 0 H 1.965233 V -1.856053 L 2.292772,-2.114114 3.622778,0 Z M 4.555768,-0.436718 H 3.870914 L 2.640162,-2.382101 3.086806,-2.72949 Z m -3.027253,0 H 0.932989 v -5.905625 h 0.595526 z"
       id="equation_01_00-9"
       inkscape:connector-curvature="0" />
    <marker
       inkscape:stockid="Arrow1Mstart"
       orient="auto"
       refY="0"
       refX="0"
       id="Arrow1Mstart-8"
       style="overflow:visible"
       inkscape:isstock="true">
      <path
         id="path1002-3"
         d="M 0,0 5,-5 -12.5,0 5,5 Z"
         style="fill:#0000ff;fill-opacity:1;fill-rule:evenodd;stroke:#0000ff;stroke-width:1pt;stroke-opacity:1"
         transform="matrix(0.4,0,0,0.4,4,0)" />
    </marker>
    <marker
       inkscape:stockid="Arrow1Mend"
       orient="auto"
       refY="0"
       refX="0"
       id="marker2147-0"
       style="overflow:visible"
       inkscape:isstock="true">
      <path
         id="path2145-8"
         d="M 0,0 5,-5 -12.5,0 5,5 Z"
         style="fill:#0000ff;fill-opacity:1;fill-rule:evenodd;stroke:#0000ff;stroke-width:1pt;stroke-opacity:1"
         transform="matrix(-0.4,0,0,-0.4,-4,0)" />
    </marker>
    <marker
       inkscape:stockid="Arrow1Mstart"
       orient="auto"
       refY="0"
       refX="0"
       id="Arrow1Mstart-85"
       style="overflow:visible"
       inkscape:isstock="true">
      <path
         id="path1002-5"
         d="M 0,0 5,-5 -12.5,0 5,5 Z"
         style="fill:#0000ff;fill-opacity:1;fill-rule:evenodd;stroke:#0000ff;stroke-width:1pt;stroke-opacity:1"
         transform="matrix(0.4,0,0,0.4,4,0)" />
    </marker>
    <marker
       inkscape:stockid="Arrow1Mend"
       orient="auto"
       refY="0"
       refX="0"
       id="marker2147-3"
       style="overflow:visible"
       inkscape:isstock="true">
      <path
         id="path2145-2"
         d="M 0,0 5,-5 -12.5,0 5,5 Z"
         style="fill:#0000ff;fill-opacity:1;fill-rule:evenodd;stroke:#0000ff;stroke-width:1pt;stroke-opacity:1"
         transform="matrix(-0.4,0,0,-0.4,-4,0)" />
    </marker>
    <marker
       inkscape:stockid="Arrow1Mstart"
       orient="auto"
       refY="0"
       refX="0"
       id="Arrow1Mstart-1"
       style="overflow:visible"
       inkscape:isstock="true">
      <path
         id="path1002-1"
         d="M 0,0 5,-5 -12.5,0 5,5 Z"
         style="fill:#0000ff;fill-opacity:1;fill-rule:evenodd;stroke:#0000ff;stroke-width:1pt;stroke-opacity:1"
         transform="matrix(0.4,0,0,0.4,4,0)" />
    </marker>
    <marker
       inkscape:stockid="Arrow1Mend"
       orient="auto"
       refY="0"
       refX="0"
       id="marker2147-5"
       style="overflow:visible"
       inkscape:isstock="true">
      <path
         id="path2145-7"
         d="M 0,0 5,-5 -12.5,0 5,5 Z"
         style="fill:#0000ff;fill-opacity:1;fill-rule:evenodd;stroke:#0000ff;stroke-width:1pt;stroke-opacity:1"
         transform="matrix(-0.4,0,0,-0.4,-4,0)" />
    </marker>
    <marker
       inkscape:stockid="Arrow1Mstart"
       orient="auto"
       refY="0"
       refX="0"
       id="Arrow1Mstart-5"
       style="overflow:visible"
       inkscape:isstock="true">
      <path
         id="path1002-4"
         d="M 0,0 5,-5 -12.5,0 5,5 Z"
         style="fill:#0000ff;fill-opacity:1;fill-rule:evenodd;stroke:#0000ff;stroke-width:1pt;stroke-opacity:1"
         transform="matrix(0.4,0,0,0.4,4,0)" />
    </marker>
    <marker
       inkscape:stockid="Arrow1Mend"
       orient="auto"
       refY="0"
       refX="0"
       id="marker2147-54"
       style="overflow:visible"
       inkscape:isstock="true">
      <path
         id="path2145-20"
         d="M 0,0 5,-5 -12.5,0 5,5 Z"
         style="fill:#0000ff;fill-opacity:1;fill-rule:evenodd;stroke:#0000ff;stroke-width:1pt;stroke-opacity:1"
         transform="matrix(-0.4,0,0,-0.4,-4,0)" />
    </marker>
  </defs>
  <sodipodi:namedview
     id="base"
     pagecolor="#ffffff"
     bordercolor="#666666"
     borderopacity="1.0"
     inkscape:pageopacity="0.0"
     inkscape:pageshadow="2"
     inkscape:zoom="2.1283813"
     inkscape:cx="599.70734"
     inkscape:cy="141.05969"
     inkscape:document-units="mm"
     inkscape:current-layer="layer1"
     showgrid="true"
     showguides="false"
     inkscape:window-width="1394"
     inkscape:window-height="967"
     inkscape:window-x="234"
     inkscape:window-y="234"
     inkscape:window-maximized="0"
     inkscape:document-rotation="0"
     inkscape:snap-grids="true">
    <inkscape:grid
       type="xygrid"
       id="grid815" />
  </sodipodi:namedview>
  <metadata
     id="metadata5">
    <rdf:RDF>
      <cc:Work
         rdf:about="">
        <dc:format>image/svg+xml</dc:format>
        <dc:type
           rdf:resource="http://purl.org/dc/dcmitype/StillImage" />
        <dc:title />
      </cc:Work>
    </rdf:RDF>
  </metadata>
  <g
     inkscape:label="レイヤー 1"
     inkscape:groupmode="layer"
     id="layer1">
    <text
       xml:space="preserve"
       style="font-style:normal;font-variant:normal;font-weight:normal;font-stretch:normal;font-size:3.52778px;line-height:1.25;font-family:'ヒラギノ明朝 Pro';-inkscape-font-specification:'ヒラギノ明朝 Pro';letter-spacing:0px;word-spacing:0px;fill:#000000;fill-opacity:1;stroke:none;stroke-width:0.264583"
       x="142.875"
       y="25.802082"
       id="text1000" />
    <path
       style="fill:none;stroke:#000000;stroke-width:0.175072;stroke-miterlimit:4;stroke-dasharray:none;stroke-dashoffset:0"
       d="m 13.184203,12.634047 c 0,2.618663 0.86551,4.741509 1.933171,4.74151 1.067661,0 1.933172,-2.122846 1.933172,-4.74151 0,-1.309332 -0.05049,-2.343475 -0.566213,-3.3527547"
       id="path1093" />
    <path
       style="fill:none;stroke:#000000;stroke-width:0.175072;stroke-miterlimit:4;stroke-dasharray:none;stroke-dashoffset:0"
       d="m 16.484333,9.2812923 c -0.405641,0.7938447 -0.566213,2.0434217 -0.566213,3.3527537 0,2.618663 0.86551,4.741509 1.933171,4.741511 1.067661,0 1.933172,-2.122846 1.933172,-4.741511 0,-1.309332 -0.05049,-2.343475 -0.566213,-3.3527537"
       id="path1089" />
    <path
       style="fill:none;stroke:#000000;stroke-width:0.175072;stroke-miterlimit:4;stroke-dasharray:none;stroke-dashoffset:0"
       d="m 19.21825,9.2812923 c -0.405641,0.7938437 -0.566213,2.0434207 -0.566213,3.3527527 0,2.618663 0.86551,4.741509 1.933171,4.741512 1.067661,0 1.933172,-2.122846 1.933172,-4.741512 0,-1.309332 -0.05049,-2.343475 -0.566213,-3.3527527"
       id="path1087" />
    <path
       style="fill:none;stroke:#000000;stroke-width:0.175072;stroke-miterlimit:4;stroke-dasharray:none;stroke-dashoffset:0"
       d="m 21.952167,9.2812923 c -0.405641,0.7938437 -0.566213,2.0434207 -0.566213,3.3527527 0,2.618663 0.86551,4.741509 1.933171,4.741511 1.067661,0 1.933172,-2.122846 1.933172,-4.741511 0,-1.309332 -0.05049,-2.343475 -0.566213,-3.3527527"
       id="path1085" />
    <path
       style="fill:none;stroke:#000000;stroke-width:0.175072;stroke-miterlimit:4;stroke-dasharray:none;stroke-dashoffset:0"
       d="m 24.686084,9.2812923 c -0.405641,0.7938447 -0.566213,2.0434217 -0.566213,3.3527537 0,2.618663 0.86551,4.741509 1.933171,4.741512 1.067661,0 1.933172,-2.122846 1.933172,-4.741512 0,-1.309332 -0.05049,-2.343475 -0.566213,-3.3527537"
       id="path1083" />
    <path
       style="fill:none;stroke:#000000;stroke-width:0.175072;stroke-miterlimit:4;stroke-dasharray:none;stroke-dashoffset:0"
       d="m 27.420001,9.2812923 c -0.405641,0.7938437 -0.566213,2.0434207 -0.566213,3.3527527 0,2.618663 0.86551,4.741509 1.933171,4.741512 1.067661,0 1.933172,-2.122846 1.933172,-4.741512 0,-1.309332 -0.05049,-2.343475 -0.566213,-3.3527527"
       id="path1081" />
    <path
       style="fill:none;stroke:#000000;stroke-width:0.175072;stroke-miterlimit:4;stroke-dasharray:none;stroke-dashoffset:0"
       d="m 30.153918,9.2812923 c -0.405641,0.7938437 -0.566213,2.0434207 -0.566213,3.3527527 0,2.618663 0.86551,4.741509 1.933171,4.741512 1.067661,0 1.933172,-2.122846 1.933172,-4.741512"
       id="path1022-2-1" />
    <path
       style="fill:none;stroke:#000000;stroke-width:0.264583px;stroke-linecap:butt;stroke-linejoin:miter;stroke-opacity:1"
       d="m 11.96503,12.74198 1.219173,-0.107933"
       id="path1099" />
    <path
       style="fill:none;stroke:#000000;stroke-width:0.264583px;stroke-linecap:butt;stroke-linejoin:miter;stroke-opacity:1"
       d="m 33.454049,12.634045 0.793906,0.0147"
       id="path1101" />
    <ellipse
       style="fill:#ff0000;stroke:#000000;stroke-width:0.264999;stroke-miterlimit:4;stroke-dasharray:none;stroke-dashoffset:0"
       id="path1103"
       cx="39.624451"
       cy="13.534468"
       rx="4.8792462"
       ry="5.1123314" />
    <path
       id="path1093-8"
       d="m 45.305054,13.022523 c 0,2.618663 0.86551,4.741509 1.933171,4.74151 1.067661,0 1.933172,-2.122846 1.933172,-4.74151 0,-1.309332 -0.05049,-2.343475 -0.566213,-3.352755"
       style="fill:none;stroke:#000000;stroke-width:0.175072;stroke-miterlimit:4;stroke-dasharray:none;stroke-dashoffset:0" />
    <path
       id="path1089-6"
       d="m 48.605184,9.669768 c -0.405641,0.793845 -0.566213,2.043422 -0.566213,3.352754 0,2.618663 0.86551,4.741509 1.933171,4.741511 1.067661,0 1.933172,-2.122846 1.933172,-4.741511 0,-1.309332 -0.05049,-2.343475 -0.566213,-3.352754"
       style="fill:none;stroke:#000000;stroke-width:0.175072;stroke-miterlimit:4;stroke-dasharray:none;stroke-dashoffset:0" />
    <path
       id="path1087-5"
       d="m 51.339101,9.669768 c -0.405641,0.793844 -0.566213,2.043421 -0.566213,3.352753 0,2.618663 0.86551,4.741509 1.933171,4.741512 1.067661,0 1.933172,-2.122846 1.933172,-4.741512 0,-1.309332 -0.05049,-2.343475 -0.566213,-3.352753"
       style="fill:none;stroke:#000000;stroke-width:0.175072;stroke-miterlimit:4;stroke-dasharray:none;stroke-dashoffset:0" />
    <path
       id="path1085-8"
       d="m 54.073018,9.669768 c -0.405641,0.793844 -0.566213,2.043421 -0.566213,3.352753 0,2.618663 0.86551,4.741509 1.933171,4.741511 1.067661,0 1.933172,-2.122846 1.933172,-4.741511 0,-1.309332 -0.05049,-2.343475 -0.566213,-3.352753"
       style="fill:none;stroke:#000000;stroke-width:0.175072;stroke-miterlimit:4;stroke-dasharray:none;stroke-dashoffset:0" />
    <path
       id="path1083-0"
       d="m 56.806935,9.669768 c -0.405641,0.793845 -0.566213,2.043422 -0.566213,3.352754 0,2.618663 0.86551,4.741509 1.933171,4.741512 1.067661,0 1.933172,-2.122846 1.933172,-4.741512 0,-1.309332 -0.05049,-2.343475 -0.566213,-3.352754"
       style="fill:none;stroke:#000000;stroke-width:0.175072;stroke-miterlimit:4;stroke-dasharray:none;stroke-dashoffset:0" />
    <path
       id="path1081-4"
       d="m 59.540852,9.669768 c -0.405641,0.793844 -0.566213,2.043421 -0.566213,3.352753 0,2.618663 0.86551,4.741509 1.933171,4.741512 1.067661,0 1.933172,-2.122846 1.933172,-4.741512 0,-1.309332 -0.05049,-2.343475 -0.566213,-3.352753"
       style="fill:none;stroke:#000000;stroke-width:0.175072;stroke-miterlimit:4;stroke-dasharray:none;stroke-dashoffset:0" />
    <path
       id="path1022-2-1-3"
       d="m 62.274769,9.669768 c -0.405641,0.793844 -0.566213,2.043421 -0.566213,3.352753 0,2.618663 0.86551,4.741509 1.933171,4.741512 1.067661,0 1.933172,-2.122846 1.933172,-4.741512"
       style="fill:none;stroke:#000000;stroke-width:0.175072;stroke-miterlimit:4;stroke-dasharray:none;stroke-dashoffset:0" />
    <ellipse
       ry="5.1123314"
       rx="4.8792462"
       cy="13.922943"
       cx="71.7453"
       id="path1103-8"
       style="fill:#ff0000;stroke:#000000;stroke-width:0.264999;stroke-miterlimit:4;stroke-dasharray:none;stroke-dashoffset:0" />
    <path
       id="path1093-81"
       d="m 143.38722,14.762892 c 0,2.618663 0.86551,4.741509 1.93317,4.74151 1.06766,0 1.93317,-2.122846 1.93317,-4.74151 0,-1.309332 -0.0505,-2.343475 -0.56621,-3.352755"
       style="fill:none;stroke:#000000;stroke-width:0.175072;stroke-miterlimit:4;stroke-dasharray:none;stroke-dashoffset:0" />
    <path
       id="path1089-9"
       d="m 146.68735,11.410137 c -0.40564,0.793845 -0.56622,2.043422 -0.56622,3.352754 0,2.618663 0.86551,4.741509 1.93317,4.741511 1.06767,0 1.93318,-2.122846 1.93318,-4.741511 0,-1.309332 -0.0505,-2.343475 -0.56622,-3.352754"
       style="fill:none;stroke:#000000;stroke-width:0.175072;stroke-miterlimit:4;stroke-dasharray:none;stroke-dashoffset:0" />
    <path
       id="path1087-7"
       d="m 149.42126,11.410137 c -0.40564,0.793844 -0.56621,2.043421 -0.56621,3.352753 0,2.618663 0.86551,4.741509 1.93317,4.741512 1.06766,0 1.93317,-2.122846 1.93317,-4.741512 0,-1.309332 -0.0505,-2.343475 -0.56621,-3.352753"
       style="fill:none;stroke:#000000;stroke-width:0.175072;stroke-miterlimit:4;stroke-dasharray:none;stroke-dashoffset:0" />
    <path
       id="path1085-80"
       d="m 152.15518,11.410137 c -0.40564,0.793844 -0.56621,2.043421 -0.56621,3.352753 0,2.618663 0.86551,4.741509 1.93317,4.741511 1.06766,0 1.93317,-2.122846 1.93317,-4.741511 0,-1.309332 -0.0505,-2.343475 -0.56621,-3.352753"
       style="fill:none;stroke:#000000;stroke-width:0.175072;stroke-miterlimit:4;stroke-dasharray:none;stroke-dashoffset:0" />
    <path
       id="path1083-6"
       d="m 154.8891,11.410137 c -0.40564,0.793845 -0.56622,2.043422 -0.56622,3.352754 0,2.618663 0.86551,4.741509 1.93318,4.741512 1.06766,0 1.93317,-2.122846 1.93317,-4.741512 0,-1.309332 -0.0505,-2.343475 -0.56622,-3.352754"
       style="fill:none;stroke:#000000;stroke-width:0.175072;stroke-miterlimit:4;stroke-dasharray:none;stroke-dashoffset:0" />
    <path
       id="path1081-8"
       d="m 157.62301,11.410137 c -0.40564,0.793844 -0.56621,2.043421 -0.56621,3.352753 0,2.618663 0.86551,4.741509 1.93317,4.741512 1.06766,0 1.93317,-2.122846 1.93317,-4.741512 0,-1.309332 -0.0505,-2.343475 -0.56621,-3.352753"
       style="fill:none;stroke:#000000;stroke-width:0.175072;stroke-miterlimit:4;stroke-dasharray:none;stroke-dashoffset:0" />
    <path
       id="path1022-2-1-8"
       d="m 160.35693,11.410137 c -0.40564,0.793844 -0.56621,2.043421 -0.56621,3.352753 0,2.618663 0.86551,4.741509 1.93317,4.741512 1.06766,0 1.93317,-2.122846 1.93317,-4.741512"
       style="fill:none;stroke:#000000;stroke-width:0.175072;stroke-miterlimit:4;stroke-dasharray:none;stroke-dashoffset:0" />
    <path
       id="path1099-23"
       d="m 142.16804,14.870825 1.21918,-0.107933"
       style="fill:none;stroke:#000000;stroke-width:0.264583px;stroke-linecap:butt;stroke-linejoin:miter;stroke-opacity:1" />
    <path
       id="path1101-2"
       d="m 163.65706,14.76289 0.79391,0.0147"
       style="fill:none;stroke:#000000;stroke-width:0.264583px;stroke-linecap:butt;stroke-linejoin:miter;stroke-opacity:1" />
    <ellipse
       ry="5.1123314"
       rx="4.8792462"
       cy="15.663311"
       cx="169.82747"
       id="path1103-82"
       style="fill:#ff0000;stroke:#000000;stroke-width:0.264999;stroke-miterlimit:4;stroke-dasharray:none;stroke-dashoffset:0" />
    <path
       id="path1093-7"
       d="m 110.56885,14.14133 c 0,2.618663 0.86551,4.741509 1.93317,4.74151 1.06766,0 1.93318,-2.122846 1.93318,-4.74151 0,-1.309332 -0.0505,-2.343475 -0.56622,-3.352754"
       style="fill:none;stroke:#000000;stroke-width:0.175072;stroke-miterlimit:4;stroke-dasharray:none;stroke-dashoffset:0" />
    <path
       id="path1089-1"
       d="m 113.86898,10.788576 c -0.40564,0.793844 -0.56621,2.043421 -0.56621,3.352753 0,2.618664 0.86551,4.74151 1.93317,4.741511 1.06766,0 1.93317,-2.122846 1.93317,-4.741511 0,-1.309332 -0.0505,-2.343475 -0.56621,-3.352753"
       style="fill:none;stroke:#000000;stroke-width:0.175072;stroke-miterlimit:4;stroke-dasharray:none;stroke-dashoffset:0" />
    <path
       id="path1087-2"
       d="m 116.6029,10.788576 c -0.40564,0.793843 -0.56621,2.04342 -0.56621,3.352752 0,2.618663 0.86551,4.741509 1.93317,4.741512 1.06766,0 1.93317,-2.122846 1.93317,-4.741512 0,-1.309332 -0.0505,-2.343475 -0.56621,-3.352752"
       style="fill:none;stroke:#000000;stroke-width:0.175072;stroke-miterlimit:4;stroke-dasharray:none;stroke-dashoffset:0" />
    <path
       id="path1085-4"
       d="m 119.33682,10.788576 c -0.40564,0.793843 -0.56622,2.04342 -0.56622,3.352752 0,2.618663 0.86551,4.741509 1.93317,4.741511 1.06767,0 1.93318,-2.122846 1.93318,-4.741511 0,-1.309332 -0.0505,-2.343475 -0.56622,-3.352752"
       style="fill:none;stroke:#000000;stroke-width:0.175072;stroke-miterlimit:4;stroke-dasharray:none;stroke-dashoffset:0" />
    <path
       id="path1083-7"
       d="m 122.07073,10.788576 c -0.40564,0.793844 -0.56621,2.043421 -0.56621,3.352753 0,2.618664 0.86551,4.74151 1.93317,4.741512 1.06766,0 1.93317,-2.122846 1.93317,-4.741512 0,-1.309332 -0.0505,-2.343475 -0.56621,-3.352753"
       style="fill:none;stroke:#000000;stroke-width:0.175072;stroke-miterlimit:4;stroke-dasharray:none;stroke-dashoffset:0" />
    <path
       id="path1081-43"
       d="m 124.80465,10.788576 c -0.40564,0.793843 -0.56621,2.04342 -0.56621,3.352752 0,2.618663 0.86551,4.741509 1.93317,4.741512 1.06766,0 1.93317,-2.122846 1.93317,-4.741512 0,-1.309332 -0.0505,-2.343475 -0.56621,-3.352752"
       style="fill:none;stroke:#000000;stroke-width:0.175072;stroke-miterlimit:4;stroke-dasharray:none;stroke-dashoffset:0" />
    <path
       id="path1022-2-1-7"
       d="m 127.53857,10.788576 c -0.40564,0.793843 -0.56622,2.04342 -0.56622,3.352752 0,2.618663 0.86551,4.741509 1.93318,4.741512 1.06766,0 1.93317,-2.122846 1.93317,-4.741512"
       style="fill:none;stroke:#000000;stroke-width:0.175072;stroke-miterlimit:4;stroke-dasharray:none;stroke-dashoffset:0" />
    <path
       id="path1099-9"
       d="m 109.34968,14.249263 1.21917,-0.107933"
       style="fill:none;stroke:#000000;stroke-width:0.264583px;stroke-linecap:butt;stroke-linejoin:miter;stroke-opacity:1" />
    <path
       id="path1101-6"
       d="m 130.8387,14.141328 0.7939,0.0147"
       style="fill:none;stroke:#000000;stroke-width:0.264583px;stroke-linecap:butt;stroke-linejoin:miter;stroke-opacity:1" />
    <ellipse
       ry="5.1123314"
       rx="4.8792462"
       cy="15.041751"
       cx="137.00911"
       id="path1103-0"
       style="fill:#ff0000;stroke:#000000;stroke-width:0.264999;stroke-miterlimit:4;stroke-dasharray:none;stroke-dashoffset:0" />
    <path
       id="path1093-1"
       d="m 77.999109,13.519771 c 0,2.618663 0.86551,4.741509 1.933171,4.74151 1.067661,0 1.933172,-2.122846 1.933172,-4.74151 0,-1.309332 -0.05049,-2.343475 -0.566213,-3.352754"
       style="fill:none;stroke:#000000;stroke-width:0.175072;stroke-miterlimit:4;stroke-dasharray:none;stroke-dashoffset:0" />
    <path
       id="path1089-16"
       d="m 81.299239,10.167017 c -0.405641,0.793844 -0.566213,2.043421 -0.566213,3.352753 0,2.618664 0.86551,4.74151 1.933171,4.741511 1.067661,0 1.933172,-2.122846 1.933172,-4.741511 0,-1.309332 -0.05049,-2.343475 -0.566213,-3.352753"
       style="fill:none;stroke:#000000;stroke-width:0.175072;stroke-miterlimit:4;stroke-dasharray:none;stroke-dashoffset:0" />
    <path
       id="path1087-9"
       d="m 84.033156,10.167017 c -0.405641,0.793843 -0.566213,2.04342 -0.566213,3.352752 0,2.618663 0.86551,4.741509 1.933171,4.741512 1.067661,0 1.933172,-2.122846 1.933172,-4.741512 0,-1.309332 -0.05049,-2.343475 -0.566213,-3.352752"
       style="fill:none;stroke:#000000;stroke-width:0.175072;stroke-miterlimit:4;stroke-dasharray:none;stroke-dashoffset:0" />
    <path
       id="path1085-83"
       d="m 86.767073,10.167017 c -0.405641,0.793843 -0.566213,2.04342 -0.566213,3.352752 0,2.618663 0.86551,4.741509 1.933171,4.741511 1.067661,0 1.933173,-2.122846 1.933173,-4.741511 0,-1.309332 -0.0505,-2.343475 -0.566214,-3.352752"
       style="fill:none;stroke:#000000;stroke-width:0.175072;stroke-miterlimit:4;stroke-dasharray:none;stroke-dashoffset:0" />
    <path
       id="path1083-4"
       d="m 89.50099,10.167017 c -0.405641,0.793844 -0.566213,2.043421 -0.566213,3.352753 0,2.618664 0.865507,4.74151 1.933167,4.741512 1.06766,0 1.93318,-2.122846 1.93318,-4.741512 0,-1.309332 -0.0505,-2.343475 -0.56622,-3.352753"
       style="fill:none;stroke:#000000;stroke-width:0.175072;stroke-miterlimit:4;stroke-dasharray:none;stroke-dashoffset:0" />
    <path
       id="path1081-2"
       d="m 92.234904,10.167017 c -0.40564,0.793843 -0.56621,2.04342 -0.56621,3.352752 0,2.618663 0.86551,4.741509 1.93317,4.741512 1.06766,0 1.93317,-2.122846 1.93317,-4.741512 0,-1.309332 -0.0505,-2.343475 -0.56621,-3.352752"
       style="fill:none;stroke:#000000;stroke-width:0.175072;stroke-miterlimit:4;stroke-dasharray:none;stroke-dashoffset:0" />
    <path
       id="path1022-2-1-9"
       d="m 94.968824,10.167017 c -0.40564,0.793843 -0.56621,2.04342 -0.56621,3.352752 0,2.618663 0.86551,4.741509 1.93317,4.741512 1.06766,0 1.93317,-2.122846 1.93317,-4.741512"
       style="fill:none;stroke:#000000;stroke-width:0.175072;stroke-miterlimit:4;stroke-dasharray:none;stroke-dashoffset:0" />
    <path
       id="path1099-29"
       d="m 76.779936,13.627704 1.219173,-0.107933"
       style="fill:none;stroke:#000000;stroke-width:0.264583px;stroke-linecap:butt;stroke-linejoin:miter;stroke-opacity:1" />
    <path
       id="path1101-0"
       d="m 98.268954,13.519769 0.79391,0.0147"
       style="fill:none;stroke:#000000;stroke-width:0.264583px;stroke-linecap:butt;stroke-linejoin:miter;stroke-opacity:1" />
    <ellipse
       ry="5.1123314"
       rx="4.8792462"
       cy="14.420191"
       cx="104.43938"
       id="path1103-5"
       style="fill:#ff0000;stroke:#000000;stroke-width:0.264999;stroke-miterlimit:4;stroke-dasharray:none;stroke-dashoffset:0" />
    <path
       style="fill:none;stroke:#000000;stroke-width:0.175072;stroke-miterlimit:4;stroke-dasharray:none;stroke-dashoffset:0"
       d="m 176.17738,15.069393 c 0,2.618663 0.86551,4.741509 1.93317,4.74151 1.06766,0 1.93317,-2.122846 1.93317,-4.74151 0,-1.309332 -0.0505,-2.343475 -0.56621,-3.352755"
       id="path1093-81-2" />
    <path
       style="fill:none;stroke:#000000;stroke-width:0.175072;stroke-miterlimit:4;stroke-dasharray:none;stroke-dashoffset:0"
       d="m 179.47751,11.716638 c -0.40564,0.793845 -0.56622,2.043422 -0.56622,3.352754 0,2.618663 0.86551,4.741509 1.93317,4.741511 1.06767,0 1.93318,-2.122846 1.93318,-4.741511 0,-1.309332 -0.0505,-2.343475 -0.56622,-3.352754"
       id="path1089-9-7" />
    <path
       style="fill:none;stroke:#000000;stroke-width:0.175072;stroke-miterlimit:4;stroke-dasharray:none;stroke-dashoffset:0"
       d="m 182.21142,11.716638 c -0.40564,0.793844 -0.56621,2.043421 -0.56621,3.352752 0,2.618664 0.86551,4.74151 1.93317,4.741513 1.06766,0 1.93317,-2.122846 1.93317,-4.741513 0,-1.309331 -0.0505,-2.343474 -0.56621,-3.352752"
       id="path1087-7-9" />
    <path
       style="fill:none;stroke:#000000;stroke-width:0.175072;stroke-miterlimit:4;stroke-dasharray:none;stroke-dashoffset:0"
       d="m 184.94534,11.716638 c -0.40564,0.793844 -0.56621,2.043421 -0.56621,3.352752 0,2.618664 0.86551,4.74151 1.93317,4.741512 1.06766,0 1.93317,-2.122846 1.93317,-4.741512 0,-1.309331 -0.0505,-2.343474 -0.56621,-3.352752"
       id="path1085-80-8" />
    <path
       style="fill:none;stroke:#000000;stroke-width:0.175072;stroke-miterlimit:4;stroke-dasharray:none;stroke-dashoffset:0"
       d="m 187.67926,11.716638 c -0.40564,0.793845 -0.56622,2.043422 -0.56622,3.352754 0,2.618663 0.86551,4.741509 1.93318,4.741512 1.06766,0 1.93317,-2.122846 1.93317,-4.741512 0,-1.309332 -0.0505,-2.343475 -0.56622,-3.352754"
       id="path1083-6-6" />
    <path
       style="fill:none;stroke:#000000;stroke-width:0.175072;stroke-miterlimit:4;stroke-dasharray:none;stroke-dashoffset:0"
       d="m 190.41317,11.716638 c -0.40564,0.793844 -0.56621,2.043421 -0.56621,3.352752 0,2.618664 0.86551,4.74151 1.93317,4.741513 1.06766,0 1.93317,-2.122846 1.93317,-4.741513 0,-1.309331 -0.0505,-2.343474 -0.56621,-3.352752"
       id="path1081-8-3" />
    <path
       style="fill:none;stroke:#000000;stroke-width:0.175072;stroke-miterlimit:4;stroke-dasharray:none;stroke-dashoffset:0"
       d="m 193.14709,11.716638 c -0.40564,0.793844 -0.56621,2.043421 -0.56621,3.352752 0,2.618664 0.86551,4.74151 1.93317,4.741513 1.06766,0 1.93317,-2.122846 1.93317,-4.741513"
       id="path1022-2-1-8-2" />
    <path
       style="fill:none;stroke:#000000;stroke-width:0.264583px;stroke-linecap:butt;stroke-linejoin:miter;stroke-opacity:1"
       d="m 174.9582,15.177326 1.21918,-0.107933"
       id="path1099-23-4" />
    <path
       style="fill:none;stroke:#000000;stroke-width:0.264583px;stroke-linecap:butt;stroke-linejoin:miter;stroke-opacity:1"
       d="m 196.44722,15.06939 0.79391,0.0147"
       id="path1101-2-2" />
    <path
       id="path1093-82"
       d="m 40.033173,18.875085 c -0.88765,-0.0033 -1.60827,0.299848 -1.60955,0.677037 -0.0013,0.37719 0.717264,0.685615 1.604915,0.688887 0.443825,0.0016 0.79443,-0.01491 1.137164,-0.195846"
       style="fill:none;stroke:#000000;stroke-width:0.0605848;stroke-miterlimit:4;stroke-dasharray:none;stroke-dashoffset:0" />
    <path
       id="path1089-3"
       d="m 41.165702,20.045163 c -0.268604,-0.144299 -0.691981,-0.202588 -1.135806,-0.204224 -0.88765,-0.0033 -1.608271,0.299848 -1.609551,0.677038 -0.0013,0.377189 0.717265,0.685615 1.604915,0.688887 0.443825,0.0016 0.79443,-0.01491 1.137164,-0.195846"
       style="fill:none;stroke:#000000;stroke-width:0.0605848;stroke-miterlimit:4;stroke-dasharray:none;stroke-dashoffset:0" />
    <path
       id="path1087-21"
       d="m 41.162424,21.011018 c -0.268603,-0.144299 -0.691981,-0.202588 -1.135806,-0.204224 -0.88765,-0.0033 -1.60827,0.299847 -1.609551,0.677037 -0.0013,0.37719 0.717265,0.685615 1.604916,0.688887 0.443825,0.0016 0.79443,-0.01491 1.137164,-0.195846"
       style="fill:none;stroke:#000000;stroke-width:0.0605848;stroke-miterlimit:4;stroke-dasharray:none;stroke-dashoffset:0" />
    <path
       id="path1085-0"
       d="m 41.159147,21.976872 c -0.268604,-0.144299 -0.691981,-0.202588 -1.135806,-0.204224 -0.887651,-0.0033 -1.60827,0.299848 -1.609551,0.677038 -0.0013,0.377189 0.717265,0.685615 1.604915,0.688886 0.443825,0.0016 0.79443,-0.01491 1.137164,-0.195845"
       style="fill:none;stroke:#000000;stroke-width:0.0605848;stroke-miterlimit:4;stroke-dasharray:none;stroke-dashoffset:0" />
    <path
       id="path1083-1"
       d="m 41.155869,22.942727 c -0.268604,-0.144299 -0.691981,-0.202589 -1.135806,-0.204224 -0.88765,-0.0033 -1.608271,0.299847 -1.609552,0.677037 -0.0013,0.377189 0.717265,0.685615 1.604916,0.688887 0.443825,0.0016 0.79443,-0.01491 1.137165,-0.195846"
       style="fill:none;stroke:#000000;stroke-width:0.0605848;stroke-miterlimit:4;stroke-dasharray:none;stroke-dashoffset:0" />
    <path
       id="path1081-1"
       d="m 41.152592,23.908581 c -0.268604,-0.144299 -0.691982,-0.202588 -1.135807,-0.204224 -0.88765,-0.0033 -1.60827,0.299848 -1.609551,0.677037 -0.0013,0.37719 0.717265,0.685615 1.604916,0.688887 0.443825,0.0016 0.79443,-0.01491 1.137164,-0.195845"
       style="fill:none;stroke:#000000;stroke-width:0.0605848;stroke-miterlimit:4;stroke-dasharray:none;stroke-dashoffset:0" />
    <path
       id="path1022-2-1-2"
       d="m 41.149314,24.874436 c -0.268604,-0.1443 -0.691981,-0.202589 -1.135806,-0.204225 -0.88765,-0.0033 -1.608271,0.299848 -1.609552,0.677037 -0.0013,0.37719 0.717265,0.685615 1.604916,0.688888"
       style="fill:none;stroke:#000000;stroke-width:0.0605848;stroke-miterlimit:4;stroke-dasharray:none;stroke-dashoffset:0" />
    <path
       id="path1099-4"
       d="m 39.998048,18.444233 0.03513,0.430852"
       style="fill:none;stroke:#000000;stroke-width:0.0915607px;stroke-linecap:butt;stroke-linejoin:miter;stroke-opacity:1" />
    <path
       id="path1101-3"
       d="m 40.008872,26.036136 -0.0059,0.280457"
       style="fill:none;stroke:#000000;stroke-width:0.0915607px;stroke-linecap:butt;stroke-linejoin:miter;stroke-opacity:1" />
    <path
       style="fill:none;stroke:#000000;stroke-width:0.0605848;stroke-miterlimit:4;stroke-dasharray:none;stroke-dashoffset:0"
       d="m 71.735722,19.866706 c -0.88765,-0.0033 -1.60827,0.299848 -1.60955,0.677037 -0.0013,0.37719 0.717264,0.685615 1.604915,0.688887 0.443825,0.0016 0.79443,-0.01491 1.137164,-0.195846"
       id="path1093-82-8" />
    <path
       style="fill:none;stroke:#000000;stroke-width:0.0605848;stroke-miterlimit:4;stroke-dasharray:none;stroke-dashoffset:0"
       d="m 72.868251,21.036784 c -0.268604,-0.144299 -0.691981,-0.202588 -1.135806,-0.204224 -0.88765,-0.0033 -1.608271,0.299848 -1.609551,0.677038 -0.0013,0.377189 0.717265,0.685615 1.604915,0.688887 0.443825,0.0016 0.79443,-0.01491 1.137165,-0.195846"
       id="path1089-3-3" />
    <path
       style="fill:none;stroke:#000000;stroke-width:0.0605848;stroke-miterlimit:4;stroke-dasharray:none;stroke-dashoffset:0"
       d="m 72.864974,22.002639 c -0.268604,-0.144299 -0.691982,-0.202588 -1.135807,-0.204224 -0.88765,-0.0033 -1.60827,0.299847 -1.609551,0.677037 -0.0013,0.37719 0.717265,0.685615 1.604916,0.688887 0.443825,0.0016 0.79443,-0.01491 1.137164,-0.195846"
       id="path1087-21-3" />
    <path
       style="fill:none;stroke:#000000;stroke-width:0.0605848;stroke-miterlimit:4;stroke-dasharray:none;stroke-dashoffset:0"
       d="m 72.861696,22.968493 c -0.268604,-0.144299 -0.691981,-0.202588 -1.135806,-0.204224 -0.887651,-0.0033 -1.60827,0.299848 -1.609551,0.677038 -0.0013,0.377189 0.717265,0.685615 1.604915,0.688886 0.443825,0.0016 0.79443,-0.01491 1.137165,-0.195845"
       id="path1085-0-0" />
    <path
       style="fill:none;stroke:#000000;stroke-width:0.0605848;stroke-miterlimit:4;stroke-dasharray:none;stroke-dashoffset:0"
       d="m 72.858419,23.934348 c -0.268605,-0.144299 -0.691982,-0.202589 -1.135807,-0.204224 -0.88765,-0.0033 -1.608271,0.299847 -1.609552,0.677037 -0.0013,0.377189 0.717265,0.685615 1.604916,0.688887 0.443825,0.0016 0.79443,-0.01491 1.137165,-0.195846"
       id="path1083-1-9" />
    <path
       style="fill:none;stroke:#000000;stroke-width:0.0605848;stroke-miterlimit:4;stroke-dasharray:none;stroke-dashoffset:0"
       d="m 72.855141,24.900202 c -0.268604,-0.144299 -0.691982,-0.202588 -1.135807,-0.204224 -0.88765,-0.0033 -1.60827,0.299848 -1.609551,0.677037 -0.0013,0.37719 0.717265,0.685615 1.604916,0.688887 0.443825,0.0016 0.79443,-0.01491 1.137164,-0.195845"
       id="path1081-1-9" />
    <path
       style="fill:none;stroke:#000000;stroke-width:0.0605848;stroke-miterlimit:4;stroke-dasharray:none;stroke-dashoffset:0"
       d="m 72.851863,25.866057 c -0.268604,-0.1443 -0.691981,-0.202589 -1.135806,-0.204225 -0.88765,-0.0033 -1.608271,0.299848 -1.609552,0.677037 -0.0013,0.37719 0.717265,0.685615 1.604916,0.688888"
       id="path1022-2-1-2-3" />
    <path
       style="fill:none;stroke:#000000;stroke-width:0.0915607px;stroke-linecap:butt;stroke-linejoin:miter;stroke-opacity:1"
       d="m 71.700597,19.435854 0.03513,0.430852"
       id="path1099-4-8" />
    <path
       style="fill:none;stroke:#000000;stroke-width:0.0915607px;stroke-linecap:butt;stroke-linejoin:miter;stroke-opacity:1"
       d="m 71.711421,27.027757 -0.0059,0.280457"
       id="path1101-3-3" />
    <path
       style="fill:none;stroke:#000000;stroke-width:0.0605848;stroke-miterlimit:4;stroke-dasharray:none;stroke-dashoffset:0"
       d="m 104.42978,20.239642 c -0.88765,-0.0033 -1.60827,0.299848 -1.60955,0.677037 -0.001,0.37719 0.71726,0.685615 1.60491,0.688887 0.44383,0.0016 0.79443,-0.01491 1.13716,-0.195846"
       id="path1093-82-2" />
    <path
       style="fill:none;stroke:#000000;stroke-width:0.0605848;stroke-miterlimit:4;stroke-dasharray:none;stroke-dashoffset:0"
       d="m 105.5623,21.40972 c -0.2686,-0.144299 -0.69198,-0.202588 -1.1358,-0.204224 -0.88765,-0.0033 -1.60827,0.299848 -1.60955,0.677038 -0.001,0.377189 0.71726,0.685616 1.60491,0.688887 0.44383,0.0016 0.79443,-0.01491 1.13716,-0.195846"
       id="path1089-3-2" />
    <path
       style="fill:none;stroke:#000000;stroke-width:0.0605848;stroke-miterlimit:4;stroke-dasharray:none;stroke-dashoffset:0"
       d="m 105.55902,22.375575 c -0.2686,-0.144299 -0.69197,-0.202588 -1.1358,-0.204224 -0.88765,-0.0033 -1.60827,0.299848 -1.60955,0.677038 -0.001,0.37719 0.71727,0.685615 1.60492,0.688886 0.44382,0.0016 0.79443,-0.01491 1.13716,-0.195846"
       id="path1087-21-38" />
    <path
       style="fill:none;stroke:#000000;stroke-width:0.0605848;stroke-miterlimit:4;stroke-dasharray:none;stroke-dashoffset:0"
       d="m 105.55575,23.341429 c -0.26861,-0.144298 -0.69198,-0.202588 -1.13581,-0.204223 -0.88765,-0.0033 -1.60827,0.299848 -1.60955,0.677038 -0.001,0.377189 0.71727,0.685614 1.60492,0.688885 0.44382,0.0016 0.79443,-0.01491 1.13716,-0.195844"
       id="path1085-0-5" />
    <path
       style="fill:none;stroke:#000000;stroke-width:0.0605848;stroke-miterlimit:4;stroke-dasharray:none;stroke-dashoffset:0"
       d="m 105.55247,24.307285 c -0.2686,-0.144299 -0.69198,-0.202589 -1.1358,-0.204225 -0.88765,-0.0033 -1.60827,0.299847 -1.60956,0.677037 -0.001,0.37719 0.71727,0.685615 1.60492,0.688888 0.44383,0.0016 0.79443,-0.01491 1.13716,-0.195847"
       id="path1083-1-4" />
    <path
       style="fill:none;stroke:#000000;stroke-width:0.0605848;stroke-miterlimit:4;stroke-dasharray:none;stroke-dashoffset:0"
       d="m 105.54919,25.273138 c -0.2686,-0.144299 -0.69198,-0.202587 -1.1358,-0.204224 -0.88765,-0.0033 -1.60827,0.299849 -1.60955,0.677037 -0.001,0.37719 0.71726,0.685616 1.60491,0.688888 0.44383,0.0016 0.79443,-0.01491 1.13716,-0.195845"
       id="path1081-1-4" />
    <path
       style="fill:none;stroke:#000000;stroke-width:0.0605848;stroke-miterlimit:4;stroke-dasharray:none;stroke-dashoffset:0"
       d="m 105.54591,26.238994 c -0.2686,-0.144301 -0.69197,-0.20259 -1.1358,-0.204225 -0.88765,-0.0033 -1.60827,0.299848 -1.60955,0.677037 -0.001,0.37719 0.71726,0.685615 1.60492,0.688887"
       id="path1022-2-1-2-5" />
    <path
       style="fill:none;stroke:#000000;stroke-width:0.0915607px;stroke-linecap:butt;stroke-linejoin:miter;stroke-opacity:1"
       d="m 104.39465,19.80879 0.0351,0.430852"
       id="path1099-4-89" />
    <path
       style="fill:none;stroke:#000000;stroke-width:0.0915607px;stroke-linecap:butt;stroke-linejoin:miter;stroke-opacity:1"
       d="m 104.40548,27.400693 -0.006,0.280457"
       id="path1101-3-9" />
    <path
       style="fill:none;stroke:#000000;stroke-width:0.0605848;stroke-miterlimit:4;stroke-dasharray:none;stroke-dashoffset:0"
       d="m 136.87521,20.612578 c -0.88765,-0.0033 -1.60827,0.299848 -1.60955,0.677037 -0.001,0.37719 0.71727,0.685615 1.60492,0.688887 0.44382,0.0016 0.79443,-0.01491 1.13716,-0.195846"
       id="path1093-82-80" />
    <path
       style="fill:none;stroke:#000000;stroke-width:0.0605848;stroke-miterlimit:4;stroke-dasharray:none;stroke-dashoffset:0"
       d="m 138.00774,21.782656 c -0.2686,-0.144299 -0.69198,-0.202588 -1.13581,-0.204224 -0.88765,-0.0033 -1.60827,0.299848 -1.60955,0.677038 -0.001,0.377189 0.71727,0.685615 1.60492,0.688887 0.44382,0.0016 0.79443,-0.01491 1.13716,-0.195846"
       id="path1089-3-8" />
    <path
       style="fill:none;stroke:#000000;stroke-width:0.0605848;stroke-miterlimit:4;stroke-dasharray:none;stroke-dashoffset:0"
       d="m 138.00446,22.748511 c -0.2686,-0.144299 -0.69198,-0.202588 -1.1358,-0.204224 -0.88765,-0.0033 -1.60827,0.299847 -1.60955,0.677037 -0.001,0.37719 0.71726,0.685615 1.60491,0.688887 0.44383,0.0016 0.79443,-0.01491 1.13717,-0.195846"
       id="path1087-21-2" />
    <path
       style="fill:none;stroke:#000000;stroke-width:0.0605848;stroke-miterlimit:4;stroke-dasharray:none;stroke-dashoffset:0"
       d="m 138.00119,23.714365 c -0.26861,-0.144299 -0.69199,-0.202588 -1.13581,-0.204224 -0.88765,-0.0033 -1.60827,0.299848 -1.60955,0.677038 -0.001,0.377189 0.71726,0.685615 1.60491,0.688886 0.44383,0.0016 0.79443,-0.01491 1.13717,-0.195845"
       id="path1085-0-03" />
    <path
       style="fill:none;stroke:#000000;stroke-width:0.0605848;stroke-miterlimit:4;stroke-dasharray:none;stroke-dashoffset:0"
       d="m 137.99791,24.68022 c -0.26861,-0.144299 -0.69198,-0.202589 -1.13581,-0.204224 -0.88765,-0.0033 -1.60827,0.299847 -1.60955,0.677037 -0.001,0.377189 0.71726,0.685615 1.60492,0.688887 0.44382,0.0016 0.79443,-0.01491 1.13716,-0.195846"
       id="path1083-1-95" />
    <path
       style="fill:none;stroke:#000000;stroke-width:0.0605848;stroke-miterlimit:4;stroke-dasharray:none;stroke-dashoffset:0"
       d="m 137.99463,25.646074 c -0.2686,-0.144299 -0.69198,-0.202588 -1.13581,-0.204224 -0.88765,-0.0033 -1.60827,0.299848 -1.60955,0.677037 -0.001,0.37719 0.71727,0.685615 1.60492,0.688887 0.44382,0.0016 0.79443,-0.01491 1.13716,-0.195845"
       id="path1081-1-8" />
    <path
       style="fill:none;stroke:#000000;stroke-width:0.0605848;stroke-miterlimit:4;stroke-dasharray:none;stroke-dashoffset:0"
       d="m 137.99135,26.611929 c -0.2686,-0.1443 -0.69198,-0.202589 -1.1358,-0.204225 -0.88765,-0.0033 -1.60827,0.299848 -1.60956,0.677037 -0.001,0.37719 0.71727,0.685615 1.60492,0.688888"
       id="path1022-2-1-2-7" />
    <path
       style="fill:none;stroke:#000000;stroke-width:0.0915607px;stroke-linecap:butt;stroke-linejoin:miter;stroke-opacity:1"
       d="m 136.84009,20.181726 0.0351,0.430852"
       id="path1099-4-0" />
    <path
       style="fill:none;stroke:#000000;stroke-width:0.0915607px;stroke-linecap:butt;stroke-linejoin:miter;stroke-opacity:1"
       d="m 136.85091,27.773629 -0.006,0.280457"
       id="path1101-3-91" />
    <path
       style="fill:none;stroke:#000000;stroke-width:0.0605848;stroke-miterlimit:4;stroke-dasharray:none;stroke-dashoffset:0"
       d="m 169.81789,21.35845 c -0.88765,-0.0033 -1.60827,0.299848 -1.60955,0.677037 -0.001,0.37719 0.71727,0.685615 1.60492,0.688887 0.44382,0.0016 0.79443,-0.01491 1.13716,-0.195846"
       id="path1093-82-4" />
    <path
       style="fill:none;stroke:#000000;stroke-width:0.0605848;stroke-miterlimit:4;stroke-dasharray:none;stroke-dashoffset:0"
       d="m 170.95042,22.528528 c -0.2686,-0.144299 -0.69198,-0.202588 -1.1358,-0.204224 -0.88765,-0.0033 -1.60828,0.299848 -1.60956,0.677038 -0.001,0.377189 0.71727,0.685615 1.60492,0.688887 0.44382,0.0016 0.79443,-0.01491 1.13716,-0.195846"
       id="path1089-3-87" />
    <path
       style="fill:none;stroke:#000000;stroke-width:0.0605848;stroke-miterlimit:4;stroke-dasharray:none;stroke-dashoffset:0"
       d="m 170.94714,23.494383 c -0.2686,-0.144299 -0.69198,-0.202588 -1.1358,-0.204224 -0.88765,-0.0033 -1.60827,0.299847 -1.60955,0.677037 -10e-4,0.37719 0.71726,0.685615 1.60491,0.688887 0.44383,0.0016 0.79443,-0.01491 1.13717,-0.195846"
       id="path1087-21-7" />
    <path
       style="fill:none;stroke:#000000;stroke-width:0.0605848;stroke-miterlimit:4;stroke-dasharray:none;stroke-dashoffset:0"
       d="m 170.94387,24.460237 c -0.26861,-0.144299 -0.69198,-0.202588 -1.13581,-0.204224 -0.88765,-0.0033 -1.60827,0.299849 -1.60955,0.677039 -0.001,0.377188 0.71726,0.685614 1.60491,0.688885 0.44383,0.0016 0.79443,-0.01491 1.13717,-0.195844"
       id="path1085-0-2" />
    <path
       style="fill:none;stroke:#000000;stroke-width:0.0605848;stroke-miterlimit:4;stroke-dasharray:none;stroke-dashoffset:0"
       d="m 170.94059,25.426093 c -0.26861,-0.144299 -0.69198,-0.20259 -1.13581,-0.204225 -0.88765,-0.0033 -1.60827,0.299847 -1.60955,0.677037 -0.001,0.37719 0.71727,0.685615 1.60492,0.688887 0.44382,0.0016 0.79443,-0.01491 1.13716,-0.195846"
       id="path1083-1-6" />
    <path
       style="fill:none;stroke:#000000;stroke-width:0.0605848;stroke-miterlimit:4;stroke-dasharray:none;stroke-dashoffset:0"
       d="m 170.93731,26.391946 c -0.2686,-0.144299 -0.69198,-0.202587 -1.13581,-0.204224 -0.88765,-0.0033 -1.60827,0.299848 -1.60955,0.677037 -0.001,0.37719 0.71727,0.685615 1.60492,0.688888 0.44382,0.0016 0.79443,-0.01491 1.13716,-0.195846"
       id="path1081-1-1" />
    <path
       style="fill:none;stroke:#000000;stroke-width:0.0605848;stroke-miterlimit:4;stroke-dasharray:none;stroke-dashoffset:0"
       d="m 170.93403,27.357801 c -0.2686,-0.1443 -0.69198,-0.202589 -1.1358,-0.204225 -0.88765,-0.0033 -1.60827,0.299848 -1.60955,0.677037 -0.001,0.37719 0.71726,0.685615 1.60491,0.688888"
       id="path1022-2-1-2-54" />
    <path
       style="fill:none;stroke:#000000;stroke-width:0.0915607px;stroke-linecap:butt;stroke-linejoin:miter;stroke-opacity:1"
       d="m 169.78277,20.927598 0.0351,0.430852"
       id="path1099-4-80" />
    <path
       style="fill:none;stroke:#000000;stroke-width:0.0915607px;stroke-linecap:butt;stroke-linejoin:miter;stroke-opacity:1"
       d="m 169.79359,28.519501 -0.006,0.280457"
       id="path1101-3-1" />
    <path
       id="path988"
       d="M 31.75,5.2916666 H 47.624999"
       style="fill:#0000ff;stroke:#0000ff;stroke-width:0.265;stroke-linecap:butt;stroke-linejoin:miter;stroke-opacity:1;stroke-miterlimit:4;stroke-dasharray:none;marker-end:url(#marker2147);marker-start:url(#Arrow1Mstart)" />
    <path
       style="fill:#0000ff;stroke:#0000ff;stroke-width:0.264999;stroke-linecap:butt;stroke-linejoin:miter;stroke-miterlimit:4;stroke-dasharray:none;stroke-opacity:1;marker-start:url(#Arrow1Mstart-8);marker-end:url(#marker2147-0)"
       d="M 64.822917,5.2916667 H 80.697916"
       id="path988-4" />
    <path
       style="fill:#0000ff;stroke:#0000ff;stroke-width:0.264999;stroke-linecap:butt;stroke-linejoin:miter;stroke-miterlimit:4;stroke-dasharray:none;stroke-opacity:1;marker-start:url(#Arrow1Mstart-85);marker-end:url(#marker2147-3)"
       d="M 96.572917,5.2916667 H 112.44791"
       id="path988-8" />
    <path
       style="fill:#0000ff;stroke:#0000ff;stroke-width:0.264999;stroke-linecap:butt;stroke-linejoin:miter;stroke-miterlimit:4;stroke-dasharray:none;stroke-opacity:1;marker-start:url(#Arrow1Mstart-1);marker-end:url(#marker2147-5)"
       d="m 129.64583,5.2916667 h 15.875"
       id="path988-6" />
    <path
       style="fill:#0000ff;stroke:#0000ff;stroke-width:0.264999;stroke-linecap:butt;stroke-linejoin:miter;stroke-miterlimit:4;stroke-dasharray:none;stroke-opacity:1;marker-start:url(#Arrow1Mstart-5);marker-end:url(#marker2147-54)"
       d="m 161.39583,5.2916667 h 15.875"
       id="path988-2" />
  </g>
</svg>
